<svg viewBox="0 0 32 32" shape-rendering="crispEdges" xmlns="http://www.w3.org/2000/svg"><path fill="#FEEBD6" d="M0 0h32v32H0z"/><g clip-path="path('M3 0v1H2v1H1v1H0v19h1v1h14v-1h1V3h-1V2h-1V1h-1V0z')"><path d="M8 4.5h16v23H8z" fill="#580f00"/><path d="M9 5.5h14v21H9z" fill="#a8521c"/><path d="M8 18.5h16v9H8z" fill="#360006"/><path d="M9 16.5h14v10H9z" fill="#833216"/><path d="M13 17.5h6v1h-6zm0 3h6v1l-6 1zm-5-14h2v4H8zm5 17h6v1l-6 4z" fill="#580f00"/><path d="M13 6.5h5v9h-5z" fill="#bc7139"/><path d="M14 17.5h4v4h-4z" fill="#56554d"/><path d="M10 4.5h3v23h-3zm9 0h3v23h-3z" fill="#003039"/><g fill="#56554d"><path d="M11 5.5h1v21h-1zm9 0h1v21h-1z"/><path d="M11 7.5h2v8h-2zm9-1h2v9h-2z"/></g><path d="M10 15.5h1v12h-1zm9 0h1v12h-1z" fill="#360006"/><path d="M11 6.5h1v8h-1zm9 0h1v8h-1zm-5 11h2v4h-2z" fill="#758386"/><path d="M11 7.5h1v5h-1zm9 0h1v5h-1z" fill="#9ab0b3"/><path d="M23 13.5h1v5h-1z" fill="#250000"/><path d="M14 6.5h3v9h-3z" fill="#d38b47"/><path d="M8 17.5h2v1H8zm1 3h1v1l-1 1zm0 3h1v1l-1 2zm6-4h2v1l-2 3zm7-13h1v3h-1zm0 14h1v2h-1zm0 3h1v2h-1zm0-6h1v1h-1zm-9 0h1v2l-1 12z" fill="#580f00"/><path d="M11 8.5h1v2h-1zm9 0h1v2h-1z" fill="#d0e4f6"/><path d="M10 16.5h3v2h-3zm9 0h3v2h-3z" fill="#360006"/><g fill="#003039"><path d="M11 16.5h1v2h-1zm9 0h1v2h-1zm-5 2h2v1l-2 4zm-1-1h1v1l-1 5z"/><path d="M14 17.5h1v1h-1z"/></g><path d="M9 8.5h1v1H9zm0 5h1v1l-1 1zm8-5h2v1l-2 2zm0 4h2v1l-2 3zm1-7h1v1h-1zm4 3h1v1h-1z" fill="#833216"/><path d="M9 21.5h1v1H9zm0 3h1v1l-1 1zm5-3h4v1l-4 2zm8 0h1v1h-1zm0 3h1v1h-1zm-9-16h4v1h-4zm0 4h4v1l-4 1zm1 12h4v1l-4 2z" fill="#a8521c"/><path d="M13 6.5h2v1h-2zm3 0h2v1l-2 1zm-2 3h3v2h-3zm-1 4h5v1h-5zm2 8h2v1l-2 1zm7-7h1v1h-1z" fill="#bc7139"/><path d="M15 10.5h1v2h-1zm7 0h1v3h-1zm-6-1h1v1h-1zm1 1h1v1l-1 1z" fill="#d38b47"/><path d="M22 11.5h1v1h-1z" fill="#e5ab54"/></g></svg>