<svg height="23" viewBox="0 0 920 920" width="23" xmlns="http://www.w3.org/2000/svg" xmlns:xlink="http://www.w3.org/1999/xlink"><clipPath id="a"><path d="m260 0v40h-40v40h-40v40h-40v40 40 40 40 40 40 40 40 40 40 40 40 40 40 40 40 40 40 40h40v40h40 40 40 40 40 40 40 40 40 40 40 40 40 40v-40h40v-40-40-40-40-40-40-40-40-40-40-40-40-40-40-40-40-40-40-40h-40v-40h-40v-40h-40v-40h-40-40-40-40-40-40-40-40-40z"/></clipPath><g clip-path="url(#a)" stroke-width="1.2"><path d="m256-4h48v48h-48z" fill="#003039"/><path d="m296-4h48v48h-48z" fill="#003039"/><g fill="#580f00"><path d="m336-4h48v48h-48z"/><path d="m376-4h48v48h-48z"/><path d="m416-4h48v48h-48z"/><path d="m456-4h48v48h-48z"/><path d="m496-4h48v48h-48z"/><path d="m536-4h48v48h-48z"/></g><path d="m576-4h48v48h-48z" fill="#003039"/><path d="m616-4h48v48h-48z" fill="#003039"/><path d="m216 36h48v48h-48z" fill="#003039"/><path d="m256 36h48v48h-48z" fill="#56554d"/><path d="m296 36h48v48h-48z" fill="#003039"/><path d="m336 36h48v48h-48z" fill="#a8521c"/><path d="m376 36h48v48h-48z" fill="#a8521c"/><path d="m416 36h48v48h-48z" fill="#a8521c"/><path d="m456 36h48v48h-48z" fill="#a8521c"/><path d="m496 36h48v48h-48z" fill="#a8521c"/><path d="m536 36h48v48h-48z" fill="#833216"/><path d="m576 36h48v48h-48z" fill="#003039"/><path d="m616 36h48v48h-48z" fill="#56554d"/><path d="m656 36h48v48h-48z" fill="#003039"/><path d="m176 76h48v48h-48z" fill="#580f00"/><path d="m216 76h48v48h-48z" fill="#003039"/><path d="m256 76h48v48h-48z" fill="#758386"/><path d="m296 76h48v48h-48z" fill="#003039"/><path d="m336 76h48v48h-48z" fill="#bc7139"/><path d="m376 76h48v48h-48z" fill="#bc7139"/><path d="m416 76h48v48h-48z" fill="#d38b47"/><path d="m456 76h48v48h-48z" fill="#bc7139"/><path d="m496 76h48v48h-48z" fill="#bc7139"/><path d="m536 76h48v48h-48z" fill="#a8521c"/><path d="m576 76h48v48h-48z" fill="#003039"/><path d="m616 76h48v48h-48z" fill="#758386"/><path d="m656 76h48v48h-48z" fill="#56554d"/><path d="m696 76h48v48h-48z" fill="#580f00"/><path d="m136 116h48v48h-48z" fill="#580f00"/><path d="m176 116h48v48h-48z" fill="#580f00"/><path d="m216 116h48v48h-48z" fill="#003039"/><path d="m256 116h48v48h-48z" fill="#9ab0b3"/><path d="m296 116h48v48h-48z" fill="#56554d"/><path d="m336 116h48v48h-48z" fill="#bc7139"/><path d="m376 116h48v48h-48z" fill="#d38b47"/><path d="m416 116h48v48h-48z" fill="#d38b47"/><path d="m456 116h48v48h-48z" fill="#d38b47"/><path d="m496 116h48v48h-48z" fill="#bc7139"/><path d="m536 116h48v48h-48z" fill="#a8521c"/><path d="m576 116h48v48h-48z" fill="#003039"/><path d="m616 116h48v48h-48z" fill="#9ab0b3"/><path d="m656 116h48v48h-48z" fill="#56554d"/><path d="m696 116h48v48h-48z" fill="#580f00"/><path d="m736 116h48v48h-48z" fill="#580f00"/><path d="m136 156h48v48h-48z" fill="#580f00"/><path d="m176 156h48v48h-48z" fill="#833216"/><path d="m216 156h48v48h-48z" fill="#003039"/><path d="m256 156h48v48h-48z" fill="#d0e4f6"/><path d="m296 156h48v48h-48z" fill="#56554d"/><path d="m336 156h48v48h-48z" fill="#a8521c"/><path d="m376 156h48v48h-48z" fill="#a8521c"/><path d="m416 156h48v48h-48z" fill="#a8521c"/><path d="m456 156h48v48h-48z" fill="#a8521c"/><path d="m496 156h48v48h-48z" fill="#833216"/><path d="m536 156h48v48h-48z" fill="#833216"/><path d="m576 156h48v48h-48z" fill="#003039"/><path d="m616 156h48v48h-48z" fill="#d0e4f6"/><path d="m656 156h48v48h-48z" fill="#56554d"/><path d="m696 156h48v48h-48z" fill="#833216"/><path d="m736 156h48v48h-48z" fill="#580f00"/><path d="m136 196h48v48h-48z" fill="#580f00"/><path d="m176 196h48v48h-48z" fill="#580f00"/><path d="m216 196h48v48h-48z" fill="#003039"/><path d="m256 196h48v48h-48z" fill="#d0e4f6"/><path d="m296 196h48v48h-48z" fill="#56554d"/><path d="m336 196h48v48h-48z" fill="#bc7139"/><path d="m376 196h48v48h-48z" fill="#bc7139"/><path d="m416 196h48v48h-48z" fill="#bc7139"/><path d="m456 196h48v48h-48z" fill="#d38b47"/><path d="m496 196h48v48h-48z" fill="#bc7139"/><path d="m536 196h48v48h-48z" fill="#a8521c"/><path d="m576 196h48v48h-48z" fill="#003039"/><path d="m616 196h48v48h-48z" fill="#d0e4f6"/><path d="m656 196h48v48h-48z" fill="#56554d"/><path d="m696 196h48v48h-48z" fill="#a8521c"/><path d="m736 196h48v48h-48z" fill="#580f00"/><path d="m136 236h48v48h-48z" fill="#580f00"/><path d="m176 236h48v48h-48z" fill="#a8521c"/><path d="m216 236h48v48h-48z" fill="#003039"/><path d="m256 236h48v48h-48z" fill="#9ab0b3"/><path d="m296 236h48v48h-48z" fill="#56554d"/><path d="m336 236h48v48h-48z" fill="#bc7139"/><path d="m376 236h48v48h-48z" fill="#bc7139"/><path d="m416 236h48v48h-48z" fill="#d38b47"/><path d="m456 236h48v48h-48z" fill="#bc7139"/><path d="m496 236h48v48h-48z" fill="#d38b47"/><path d="m536 236h48v48h-48z" fill="#a8521c"/><path d="m576 236h48v48h-48z" fill="#003039"/><path d="m616 236h48v48h-48z" fill="#9ab0b3"/><path d="m656 236h48v48h-48z" fill="#56554d"/><path d="m696 236h48v48h-48z" fill="#d38b47"/><path d="m736 236h48v48h-48z" fill="#580f00"/><path d="m136 276h48v48h-48z" fill="#580f00"/><path d="m176 276h48v48h-48z" fill="#a8521c"/><path d="m216 276h48v48h-48z" fill="#003039"/><path d="m256 276h48v48h-48z" fill="#9ab0b3"/><path d="m296 276h48v48h-48z" fill="#56554d"/><path d="m336 276h48v48h-48z" fill="#bc7139"/><path d="m376 276h48v48h-48z" fill="#d38b47"/><path d="m416 276h48v48h-48z" fill="#d38b47"/><path d="m456 276h48v48h-48z" fill="#d38b47"/><path d="m496 276h48v48h-48z" fill="#bc7139"/><path d="m536 276h48v48h-48z" fill="#a8521c"/><path d="m576 276h48v48h-48z" fill="#003039"/><path d="m616 276h48v48h-48z" fill="#9ab0b3"/><path d="m656 276h48v48h-48z" fill="#56554d"/><path d="m696 276h48v48h-48z" fill="#e5ab54"/><path d="m736 276h48v48h-48z" fill="#580f00"/><path d="m136 316h48v48h-48z" fill="#580f00"/><path d="m176 316h48v48h-48z" fill="#a8521c"/><path d="m216 316h48v48h-48z" fill="#003039"/><path d="m256 316h48v48h-48z" fill="#758386"/><path d="m296 316h48v48h-48z" fill="#56554d"/><path d="m336 316h48v48h-48z" fill="#a8521c"/><path d="m376 316h48v48h-48z" fill="#a8521c"/><path d="m416 316h48v48h-48z" fill="#a8521c"/><path d="m456 316h48v48h-48z" fill="#a8521c"/><path d="m496 316h48v48h-48z" fill="#833216"/><path d="m536 316h48v48h-48z" fill="#833216"/><path d="m576 316h48v48h-48z" fill="#003039"/><path d="m616 316h48v48h-48z" fill="#758386"/><path d="m656 316h48v48h-48z" fill="#56554d"/><path d="m696 316h48v48h-48z" fill="#d38b47"/><path d="m736 316h48v48h-48z" fill="#580f00"/><path d="m136 356h48v48h-48z" fill="#580f00"/><path d="m176 356h48v48h-48z" fill="#833216"/><path d="m216 356h48v48h-48z" fill="#003039"/><path d="m256 356h48v48h-48z" fill="#758386"/><path d="m296 356h48v48h-48z" fill="#56554d"/><path d="m336 356h48v48h-48z" fill="#bc7139"/><path d="m376 356h48v48h-48z" fill="#bc7139"/><path d="m416 356h48v48h-48z" fill="#bc7139"/><path d="m456 356h48v48h-48z" fill="#bc7139"/><path d="m496 356h48v48h-48z" fill="#bc7139"/><path d="m536 356h48v48h-48z" fill="#a8521c"/><path d="m576 356h48v48h-48z" fill="#003039"/><path d="m616 356h48v48h-48z" fill="#758386"/><path d="m656 356h48v48h-48z" fill="#56554d"/><path d="m696 356h48v48h-48z" fill="#a8521c"/><path d="m736 356h48v48h-48z" fill="#250000"/><path d="m136 396h48v48h-48z" fill="#580f00"/><path d="m176 396h48v48h-48z" fill="#a8521c"/><path d="m216 396h48v48h-48z" fill="#003039"/><path d="m256 396h48v48h-48z" fill="#56554d"/><path d="m296 396h48v48h-48z" fill="#56554d"/><path d="m336 396h48v48h-48z" fill="#bc7139"/><path d="m376 396h48v48h-48z" fill="#d38b47"/><path d="m416 396h48v48h-48z" fill="#d38b47"/><path d="m456 396h48v48h-48z" fill="#d38b47"/><path d="m496 396h48v48h-48z" fill="#bc7139"/><path d="m536 396h48v48h-48z" fill="#a8521c"/><path d="m576 396h48v48h-48z" fill="#003039"/><path d="m616 396h48v48h-48z" fill="#56554d"/><path d="m656 396h48v48h-48z" fill="#56554d"/><path d="m696 396h48v48h-48z" fill="#bc7139"/><path d="m736 396h48v48h-48z" fill="#250000"/><path d="m136 436h48v48h-48z" fill="#580f00"/><path d="m176 436h48v48h-48z" fill="#a8521c"/><path d="m216 436h48v48h-48z" fill="#360006"/><path d="m256 436h48v48h-48z" fill="#56554d"/><path d="m296 436h48v48h-48z" fill="#003039"/><path d="m336 436h48v48h-48z" fill="#a8521c"/><path d="m376 436h48v48h-48z" fill="#a8521c"/><path d="m416 436h48v48h-48z" fill="#a8521c"/><path d="m456 436h48v48h-48z" fill="#a8521c"/><path d="m496 436h48v48h-48z" fill="#a8521c"/><path d="m536 436h48v48h-48z" fill="#a8521c"/><path d="m576 436h48v48h-48z" fill="#360006"/><path d="m616 436h48v48h-48z" fill="#56554d"/><path d="m656 436h48v48h-48z" fill="#003039"/><path d="m696 436h48v48h-48z" fill="#a8521c"/><path d="m736 436h48v48h-48z" fill="#250000"/><path d="m136 476h48v48h-48z" fill="#580f00"/><path d="m176 476h48v48h-48z" fill="#833216"/><path d="m216 476h48v48h-48z" fill="#360006"/><path d="m256 476h48v48h-48z" fill="#003039"/><path d="m296 476h48v48h-48z" fill="#360006"/><path d="m336 476h48v48h-48z" fill="#833216"/><path d="m376 476h48v48h-48z" fill="#833216"/><path d="m416 476h48v48h-48z" fill="#833216"/><path d="m456 476h48v48h-48z" fill="#833216"/><path d="m496 476h48v48h-48z" fill="#833216"/><path d="m536 476h48v48h-48z" fill="#833216"/><path d="m576 476h48v48h-48z" fill="#360006"/><path d="m616 476h48v48h-48z" fill="#003039"/><path d="m656 476h48v48h-48z" fill="#360006"/><path d="m696 476h48v48h-48z" fill="#833216"/><path d="m736 476h48v48h-48z" fill="#250000"/><path d="m136 516h48v48h-48z" fill="#580f00"/><path d="m176 516h48v48h-48z" fill="#580f00"/><path d="m216 516h48v48h-48z" fill="#360006"/><path d="m256 516h48v48h-48z" fill="#003039"/><path d="m296 516h48v48h-48z" fill="#360006"/><path d="m336 516h48v48h-48z" fill="#580f00"/><path d="m376 516h48v48h-48z" fill="#003039"/><path d="m416 516h48v48h-48z" fill="#758386"/><path d="m456 516h48v48h-48z" fill="#758386"/><path d="m496 516h48v48h-48z" fill="#56554d"/><path d="m536 516h48v48h-48z" fill="#580f00"/><path d="m576 516h48v48h-48z" fill="#360006"/><path d="m616 516h48v48h-48z" fill="#003039"/><path d="m656 516h48v48h-48z" fill="#360006"/><path d="m696 516h48v48h-48z" fill="#580f00"/><path d="m736 516h48v48h-48z" fill="#250000"/><path d="m136 556h48v48h-48z" fill="#360006"/><path d="m176 556h48v48h-48z" fill="#833216"/><path d="m216 556h48v48h-48z" fill="#360006"/><path d="m256 556h48v48h-48z" fill="#56554d"/><path d="m296 556h48v48h-48z" fill="#003039"/><path d="m336 556h48v48h-48z" fill="#580f00"/><path d="m376 556h48v48h-48z" fill="#56554d"/><path d="m416 556h48v48h-48z" fill="#003039"/><path d="m456 556h48v48h-48z" fill="#003039"/><path d="m496 556h48v48h-48z" fill="#56554d"/><path d="m536 556h48v48h-48z" fill="#833216"/><path d="m576 556h48v48h-48z" fill="#360006"/><path d="m616 556h48v48h-48z" fill="#56554d"/><path d="m656 556h48v48h-48z" fill="#003039"/><path d="m696 556h48v48h-48z" fill="#833216"/><path d="m736 556h48v48h-48z" fill="#360006"/><path d="m136 596h48v48h-48z" fill="#360006"/><path d="m176 596h48v48h-48z" fill="#833216"/><path d="m216 596h48v48h-48z" fill="#360006"/><path d="m256 596h48v48h-48z" fill="#56554d"/><path d="m296 596h48v48h-48z" fill="#003039"/><path d="m336 596h48v48h-48z" fill="#833216"/><path d="m376 596h48v48h-48z" fill="#56554d"/><path d="m416 596h48v48h-48z" fill="#580f00"/><path d="m456 596h48v48h-48z" fill="#580f00"/><path d="m496 596h48v48h-48z" fill="#56554d"/><path d="m536 596h48v48h-48z" fill="#833216"/><path d="m576 596h48v48h-48z" fill="#360006"/><path d="m616 596h48v48h-48z" fill="#56554d"/><path d="m656 596h48v48h-48z" fill="#003039"/><path d="m696 596h48v48h-48z" fill="#833216"/><path d="m736 596h48v48h-48z" fill="#360006"/><path d="m136 636h48v48h-48z" fill="#360006"/><path d="m176 636h48v48h-48z" fill="#580f00"/><path d="m216 636h48v48h-48z" fill="#360006"/><path d="m256 636h48v48h-48z" fill="#56554d"/><path d="m296 636h48v48h-48z" fill="#003039"/><path d="m336 636h48v48h-48z" fill="#580f00"/><path d="m376 636h48v48h-48z" fill="#56554d"/><path d="m416 636h48v48h-48z" fill="#758386"/><path d="m456 636h48v48h-48z" fill="#758386"/><path d="m496 636h48v48h-48z" fill="#56554d"/><path d="m536 636h48v48h-48z" fill="#580f00"/><path d="m576 636h48v48h-48z" fill="#360006"/><path d="m616 636h48v48h-48z" fill="#56554d"/><path d="m656 636h48v48h-48z" fill="#003039"/><path d="m696 636h48v48h-48z" fill="#580f00"/><path d="m736 636h48v48h-48z" fill="#360006"/><path d="m136 676h48v48h-48z" fill="#360006"/><path d="m176 676h48v48h-48z" fill="#a8521c"/><path d="m216 676h48v48h-48z" fill="#360006"/><path d="m256 676h48v48h-48z" fill="#56554d"/><path d="m296 676h48v48h-48z" fill="#003039"/><path d="m336 676h48v48h-48z" fill="#833216"/><path d="m376 676h48v48h-48z" fill="#a8521c"/><path d="m416 676h48v48h-48z" fill="#bc7139"/><path d="m456 676h48v48h-48z" fill="#bc7139"/><path d="m496 676h48v48h-48z" fill="#a8521c"/><path d="m536 676h48v48h-48z" fill="#833216"/><path d="m576 676h48v48h-48z" fill="#360006"/><path d="m616 676h48v48h-48z" fill="#56554d"/><path d="m656 676h48v48h-48z" fill="#003039"/><path d="m696 676h48v48h-48z" fill="#a8521c"/><path d="m736 676h48v48h-48z" fill="#360006"/><path d="m136 716h48v48h-48z" fill="#360006"/><path d="m176 716h48v48h-48z" fill="#833216"/><path d="m216 716h48v48h-48z" fill="#360006"/><path d="m256 716h48v48h-48z" fill="#56554d"/><path d="m296 716h48v48h-48z" fill="#003039"/><path d="m336 716h48v48h-48z" fill="#833216"/><path d="m376 716h48v48h-48z" fill="#833216"/><path d="m416 716h48v48h-48z" fill="#833216"/><path d="m456 716h48v48h-48z" fill="#833216"/><path d="m496 716h48v48h-48z" fill="#833216"/><path d="m536 716h48v48h-48z" fill="#833216"/><path d="m576 716h48v48h-48z" fill="#360006"/><path d="m616 716h48v48h-48z" fill="#56554d"/><path d="m656 716h48v48h-48z" fill="#003039"/><path d="m696 716h48v48h-48z" fill="#833216"/><path d="m736 716h48v48h-48z" fill="#360006"/><path d="m136 756h48v48h-48z" fill="#360006"/><path d="m176 756h48v48h-48z" fill="#580f00"/><path d="m216 756h48v48h-48z" fill="#360006"/><path d="m256 756h48v48h-48z" fill="#56554d"/><path d="m296 756h48v48h-48z" fill="#003039"/><path d="m336 756h48v48h-48z" fill="#580f00"/><path d="m376 756h48v48h-48z" fill="#580f00"/><path d="m416 756h48v48h-48z" fill="#580f00"/><path d="m456 756h48v48h-48z" fill="#580f00"/><path d="m496 756h48v48h-48z" fill="#580f00"/><path d="m536 756h48v48h-48z" fill="#580f00"/><path d="m576 756h48v48h-48z" fill="#360006"/><path d="m616 756h48v48h-48z" fill="#56554d"/><path d="m656 756h48v48h-48z" fill="#003039"/><path d="m696 756h48v48h-48z" fill="#580f00"/><path d="m736 756h48v48h-48z" fill="#360006"/><path d="m136 796h48v48h-48z" fill="#360006"/><path d="m176 796h48v48h-48z" fill="#a8521c"/><path d="m216 796h48v48h-48z" fill="#360006"/><path d="m256 796h48v48h-48z" fill="#56554d"/><path d="m296 796h48v48h-48z" fill="#003039"/><path d="m336 796h48v48h-48z" fill="#833216"/><path d="m376 796h48v48h-48z" fill="#a8521c"/><path d="m416 796h48v48h-48z" fill="#a8521c"/><path d="m456 796h48v48h-48z" fill="#a8521c"/><path d="m496 796h48v48h-48z" fill="#a8521c"/><path d="m536 796h48v48h-48z" fill="#833216"/><path d="m576 796h48v48h-48z" fill="#360006"/><path d="m616 796h48v48h-48z" fill="#56554d"/><path d="m656 796h48v48h-48z" fill="#003039"/><path d="m696 796h48v48h-48z" fill="#a8521c"/><path d="m736 796h48v48h-48z" fill="#360006"/><path d="m136 836h48v48h-48z" fill="#360006"/><path d="m176 836h48v48h-48z" fill="#833216"/><path d="m216 836h48v48h-48z" fill="#360006"/><path d="m256 836h48v48h-48z" fill="#56554d"/><path d="m296 836h48v48h-48z" fill="#003039"/><path d="m336 836h48v48h-48z" fill="#833216"/><path d="m376 836h48v48h-48z" fill="#833216"/><path d="m416 836h48v48h-48z" fill="#833216"/><path d="m456 836h48v48h-48z" fill="#833216"/><path d="m496 836h48v48h-48z" fill="#833216"/><path d="m536 836h48v48h-48z" fill="#833216"/><path d="m576 836h48v48h-48z" fill="#360006"/><path d="m616 836h48v48h-48z" fill="#56554d"/><path d="m656 836h48v48h-48z" fill="#003039"/><path d="m696 836h48v48h-48z" fill="#833216"/><path d="m736 836h48v48h-48z" fill="#360006"/><path d="m176 876h48v48h-48z" fill="#360006"/><path d="m216 876h48v48h-48z" fill="#360006"/><path d="m256 876h48v48h-48z" fill="#003039"/><path d="m296 876h48v48h-48z" fill="#003039"/><g fill="#360006"><path d="m336 876h48v48h-48z"/><path d="m376 876h48v48h-48z"/><path d="m416 876h48v48h-48z"/><path d="m456 876h48v48h-48z"/><path d="m496 876h48v48h-48z"/><path d="m536 876h48v48h-48z"/><path d="m576 876h48v48h-48z"/></g><path d="m616 876h48v48h-48z" fill="#003039"/><path d="m656 876h48v48h-48z" fill="#003039"/><path d="m696 876h48v48h-48z" fill="#360006"/></g><path d="m260 0h40v40h-40z" fill="#003039"/><path d="m300 0h40v40h-40z" fill="#003039"/><g fill="#580f00"><path d="m340 0h40v40h-40z"/><path d="m380 0h40v40h-40z"/><path d="m420 0h40v40h-40z"/><path d="m460 0h40v40h-40z"/><path d="m500 0h40v40h-40z"/><path d="m540 0h40v40h-40z"/></g><path d="m580 0h40v40h-40z" fill="#003039"/><path d="m620 0h40v40h-40z" fill="#003039"/><path d="m220 40h40v40h-40z" fill="#003039"/><path d="m260 40h40v40h-40z" fill="#56554d"/><path d="m300 40h40v40h-40z" fill="#003039"/><path d="m340 40h40v40h-40z" fill="#a8521c"/><path d="m380 40h40v40h-40z" fill="#a8521c"/><path d="m420 40h40v40h-40z" fill="#a8521c"/><path d="m460 40h40v40h-40z" fill="#a8521c"/><path d="m500 40h40v40h-40z" fill="#a8521c"/><path d="m540 40h40v40h-40z" fill="#833216"/><path d="m580 40h40v40h-40z" fill="#003039"/><path d="m620 40h40v40h-40z" fill="#56554d"/><path d="m660 40h40v40h-40z" fill="#003039"/><path d="m180 80h40v40h-40z" fill="#580f00"/><path d="m220 80h40v40h-40z" fill="#003039"/><path d="m260 80h40v40h-40z" fill="#758386"/><path d="m300 80h40v40h-40z" fill="#003039"/><path d="m340 80h40v40h-40z" fill="#bc7139"/><path d="m380 80h40v40h-40z" fill="#bc7139"/><path d="m420 80h40v40h-40z" fill="#d38b47"/><path d="m460 80h40v40h-40z" fill="#bc7139"/><path d="m500 80h40v40h-40z" fill="#bc7139"/><path d="m540 80h40v40h-40z" fill="#a8521c"/><path d="m580 80h40v40h-40z" fill="#003039"/><path d="m620 80h40v40h-40z" fill="#758386"/><path d="m660 80h40v40h-40z" fill="#56554d"/><path d="m700 80h40v40h-40z" fill="#580f00"/><path d="m140 120h40v40h-40z" fill="#580f00"/><path d="m180 120h40v40h-40z" fill="#580f00"/><path d="m220 120h40v40h-40z" fill="#003039"/><path d="m260 120h40v40h-40z" fill="#9ab0b3"/><path d="m300 120h40v40h-40z" fill="#56554d"/><path d="m340 120h40v40h-40z" fill="#bc7139"/><path d="m380 120h40v40h-40z" fill="#d38b47"/><path d="m420 120h40v40h-40z" fill="#d38b47"/><path d="m460 120h40v40h-40z" fill="#d38b47"/><path d="m500 120h40v40h-40z" fill="#bc7139"/><path d="m540 120h40v40h-40z" fill="#a8521c"/><path d="m580 120h40v40h-40z" fill="#003039"/><path d="m620 120h40v40h-40z" fill="#9ab0b3"/><path d="m660 120h40v40h-40z" fill="#56554d"/><path d="m700 120h40v40h-40z" fill="#580f00"/><path d="m740 120h40v40h-40z" fill="#580f00"/><path d="m140 160h40v40h-40z" fill="#580f00"/><path d="m180 160h40v40h-40z" fill="#833216"/><path d="m220 160h40v40h-40z" fill="#003039"/><path d="m260 160h40v40h-40z" fill="#d0e4f6"/><path d="m300 160h40v40h-40z" fill="#56554d"/><path d="m340 160h40v40h-40z" fill="#a8521c"/><path d="m380 160h40v40h-40z" fill="#a8521c"/><path d="m420 160h40v40h-40z" fill="#a8521c"/><path d="m460 160h40v40h-40z" fill="#a8521c"/><path d="m500 160h40v40h-40z" fill="#833216"/><path d="m540 160h40v40h-40z" fill="#833216"/><path d="m580 160h40v40h-40z" fill="#003039"/><path d="m620 160h40v40h-40z" fill="#d0e4f6"/><path d="m660 160h40v40h-40z" fill="#56554d"/><path d="m700 160h40v40h-40z" fill="#833216"/><path d="m740 160h40v40h-40z" fill="#580f00"/><path d="m140 200h40v40h-40z" fill="#580f00"/><path d="m180 200h40v40h-40z" fill="#580f00"/><path d="m220 200h40v40h-40z" fill="#003039"/><path d="m260 200h40v40h-40z" fill="#d0e4f6"/><path d="m300 200h40v40h-40z" fill="#56554d"/><path d="m340 200h40v40h-40z" fill="#bc7139"/><path d="m380 200h40v40h-40z" fill="#bc7139"/><path d="m420 200h40v40h-40z" fill="#bc7139"/><path d="m460 200h40v40h-40z" fill="#d38b47"/><path d="m500 200h40v40h-40z" fill="#bc7139"/><path d="m540 200h40v40h-40z" fill="#a8521c"/><path d="m580 200h40v40h-40z" fill="#003039"/><path d="m620 200h40v40h-40z" fill="#d0e4f6"/><path d="m660 200h40v40h-40z" fill="#56554d"/><path d="m700 200h40v40h-40z" fill="#a8521c"/><path d="m740 200h40v40h-40z" fill="#580f00"/><path d="m140 240h40v40h-40z" fill="#580f00"/><path d="m180 240h40v40h-40z" fill="#a8521c"/><path d="m220 240h40v40h-40z" fill="#003039"/><path d="m260 240h40v40h-40z" fill="#9ab0b3"/><path d="m300 240h40v40h-40z" fill="#56554d"/><path d="m340 240h40v40h-40z" fill="#bc7139"/><path d="m380 240h40v40h-40z" fill="#bc7139"/><path d="m420 240h40v40h-40z" fill="#d38b47"/><path d="m460 240h40v40h-40z" fill="#bc7139"/><path d="m500 240h40v40h-40z" fill="#d38b47"/><path d="m540 240h40v40h-40z" fill="#a8521c"/><path d="m580 240h40v40h-40z" fill="#003039"/><path d="m620 240h40v40h-40z" fill="#9ab0b3"/><path d="m660 240h40v40h-40z" fill="#56554d"/><path d="m700 240h40v40h-40z" fill="#d38b47"/><path d="m740 240h40v40h-40z" fill="#580f00"/><path d="m140 280h40v40h-40z" fill="#580f00"/><path d="m180 280h40v40h-40z" fill="#a8521c"/><path d="m220 280h40v40h-40z" fill="#003039"/><path d="m260 280h40v40h-40z" fill="#9ab0b3"/><path d="m300 280h40v40h-40z" fill="#56554d"/><path d="m340 280h40v40h-40z" fill="#bc7139"/><path d="m380 280h40v40h-40z" fill="#d38b47"/><path d="m420 280h40v40h-40z" fill="#d38b47"/><path d="m460 280h40v40h-40z" fill="#d38b47"/><path d="m500 280h40v40h-40z" fill="#bc7139"/><path d="m540 280h40v40h-40z" fill="#a8521c"/><path d="m580 280h40v40h-40z" fill="#003039"/><path d="m620 280h40v40h-40z" fill="#9ab0b3"/><path d="m660 280h40v40h-40z" fill="#56554d"/><path d="m700 280h40v40h-40z" fill="#e5ab54"/><path d="m740 280h40v40h-40z" fill="#580f00"/><path d="m140 320h40v40h-40z" fill="#580f00"/><path d="m180 320h40v40h-40z" fill="#a8521c"/><path d="m220 320h40v40h-40z" fill="#003039"/><path d="m260 320h40v40h-40z" fill="#758386"/><path d="m300 320h40v40h-40z" fill="#56554d"/><path d="m340 320h40v40h-40z" fill="#a8521c"/><path d="m380 320h40v40h-40z" fill="#a8521c"/><path d="m420 320h40v40h-40z" fill="#a8521c"/><path d="m460 320h40v40h-40z" fill="#a8521c"/><path d="m500 320h40v40h-40z" fill="#833216"/><path d="m540 320h40v40h-40z" fill="#833216"/><path d="m580 320h40v40h-40z" fill="#003039"/><path d="m620 320h40v40h-40z" fill="#758386"/><path d="m660 320h40v40h-40z" fill="#56554d"/><path d="m700 320h40v40h-40z" fill="#d38b47"/><path d="m740 320h40v40h-40z" fill="#580f00"/><path d="m140 360h40v40h-40z" fill="#580f00"/><path d="m180 360h40v40h-40z" fill="#833216"/><path d="m220 360h40v40h-40z" fill="#003039"/><path d="m260 360h40v40h-40z" fill="#758386"/><path d="m300 360h40v40h-40z" fill="#56554d"/><path d="m340 360h40v40h-40z" fill="#bc7139"/><path d="m380 360h40v40h-40z" fill="#bc7139"/><path d="m420 360h40v40h-40z" fill="#bc7139"/><path d="m460 360h40v40h-40z" fill="#bc7139"/><path d="m500 360h40v40h-40z" fill="#bc7139"/><path d="m540 360h40v40h-40z" fill="#a8521c"/><path d="m580 360h40v40h-40z" fill="#003039"/><path d="m620 360h40v40h-40z" fill="#758386"/><path d="m660 360h40v40h-40z" fill="#56554d"/><path d="m700 360h40v40h-40z" fill="#a8521c"/><path d="m740 360h40v40h-40z" fill="#250000"/><path d="m140 400h40v40h-40z" fill="#580f00"/><path d="m180 400h40v40h-40z" fill="#a8521c"/><path d="m220 400h40v40h-40z" fill="#003039"/><path d="m260 400h40v40h-40z" fill="#56554d"/><path d="m300 400h40v40h-40z" fill="#56554d"/><path d="m340 400h40v40h-40z" fill="#bc7139"/><path d="m380 400h40v40h-40z" fill="#d38b47"/><path d="m420 400h40v40h-40z" fill="#d38b47"/><path d="m460 400h40v40h-40z" fill="#d38b47"/><path d="m500 400h40v40h-40z" fill="#bc7139"/><path d="m540 400h40v40h-40z" fill="#a8521c"/><path d="m580 400h40v40h-40z" fill="#003039"/><path d="m620 400h40v40h-40z" fill="#56554d"/><path d="m660 400h40v40h-40z" fill="#56554d"/><path d="m700 400h40v40h-40z" fill="#bc7139"/><path d="m740 400h40v40h-40z" fill="#250000"/><path d="m140 440h40v40h-40z" fill="#580f00"/><path d="m180 440h40v40h-40z" fill="#a8521c"/><path d="m220 440h40v40h-40z" fill="#360006"/><path d="m260 440h40v40h-40z" fill="#56554d"/><path d="m300 440h40v40h-40z" fill="#003039"/><path d="m340 440h40v40h-40z" fill="#a8521c"/><path d="m380 440h40v40h-40z" fill="#a8521c"/><path d="m420 440h40v40h-40z" fill="#a8521c"/><path d="m460 440h40v40h-40z" fill="#a8521c"/><path d="m500 440h40v40h-40z" fill="#a8521c"/><path d="m540 440h40v40h-40z" fill="#a8521c"/><path d="m580 440h40v40h-40z" fill="#360006"/><path d="m620 440h40v40h-40z" fill="#56554d"/><path d="m660 440h40v40h-40z" fill="#003039"/><path d="m700 440h40v40h-40z" fill="#a8521c"/><path d="m740 440h40v40h-40z" fill="#250000"/><path d="m140 480h40v40h-40z" fill="#580f00"/><path d="m180 480h40v40h-40z" fill="#833216"/><path d="m220 480h40v40h-40z" fill="#360006"/><path d="m260 480h40v40h-40z" fill="#003039"/><path d="m300 480h40v40h-40z" fill="#360006"/><path d="m340 480h40v40h-40z" fill="#833216"/><path d="m380 480h40v40h-40z" fill="#833216"/><path d="m420 480h40v40h-40z" fill="#833216"/><path d="m460 480h40v40h-40z" fill="#833216"/><path d="m500 480h40v40h-40z" fill="#833216"/><path d="m540 480h40v40h-40z" fill="#833216"/><path d="m580 480h40v40h-40z" fill="#360006"/><path d="m620 480h40v40h-40z" fill="#003039"/><path d="m660 480h40v40h-40z" fill="#360006"/><path d="m700 480h40v40h-40z" fill="#833216"/><path d="m740 480h40v40h-40z" fill="#250000"/><path d="m140 520h40v40h-40z" fill="#580f00"/><path d="m180 520h40v40h-40z" fill="#580f00"/><path d="m220 520h40v40h-40z" fill="#360006"/><path d="m260 520h40v40h-40z" fill="#003039"/><path d="m300 520h40v40h-40z" fill="#360006"/><path d="m340 520h40v40h-40z" fill="#580f00"/><path d="m380 520h40v40h-40z" fill="#003039"/><path d="m420 520h40v40h-40z" fill="#758386"/><path d="m460 520h40v40h-40z" fill="#758386"/><path d="m500 520h40v40h-40z" fill="#56554d"/><path d="m540 520h40v40h-40z" fill="#580f00"/><path d="m580 520h40v40h-40z" fill="#360006"/><path d="m620 520h40v40h-40z" fill="#003039"/><path d="m660 520h40v40h-40z" fill="#360006"/><path d="m700 520h40v40h-40z" fill="#580f00"/><path d="m740 520h40v40h-40z" fill="#250000"/><path d="m140 560h40v40h-40z" fill="#360006"/><path d="m180 560h40v40h-40z" fill="#833216"/><path d="m220 560h40v40h-40z" fill="#360006"/><path d="m260 560h40v40h-40z" fill="#56554d"/><path d="m300 560h40v40h-40z" fill="#003039"/><path d="m340 560h40v40h-40z" fill="#580f00"/><path d="m380 560h40v40h-40z" fill="#56554d"/><path d="m420 560h40v40h-40z" fill="#003039"/><path d="m460 560h40v40h-40z" fill="#003039"/><path d="m500 560h40v40h-40z" fill="#56554d"/><path d="m540 560h40v40h-40z" fill="#833216"/><path d="m580 560h40v40h-40z" fill="#360006"/><path d="m620 560h40v40h-40z" fill="#56554d"/><path d="m660 560h40v40h-40z" fill="#003039"/><path d="m700 560h40v40h-40z" fill="#833216"/><path d="m740 560h40v40h-40z" fill="#360006"/><path d="m140 600h40v40h-40z" fill="#360006"/><path d="m180 600h40v40h-40z" fill="#833216"/><path d="m220 600h40v40h-40z" fill="#360006"/><path d="m260 600h40v40h-40z" fill="#56554d"/><path d="m300 600h40v40h-40z" fill="#003039"/><path d="m340 600h40v40h-40z" fill="#833216"/><path d="m380 600h40v40h-40z" fill="#56554d"/><path d="m420 600h40v40h-40z" fill="#580f00"/><path d="m460 600h40v40h-40z" fill="#580f00"/><path d="m500 600h40v40h-40z" fill="#56554d"/><path d="m540 600h40v40h-40z" fill="#833216"/><path d="m580 600h40v40h-40z" fill="#360006"/><path d="m620 600h40v40h-40z" fill="#56554d"/><path d="m660 600h40v40h-40z" fill="#003039"/><path d="m700 600h40v40h-40z" fill="#833216"/><path d="m740 600h40v40h-40z" fill="#360006"/><path d="m140 640h40v40h-40z" fill="#360006"/><path d="m180 640h40v40h-40z" fill="#580f00"/><path d="m220 640h40v40h-40z" fill="#360006"/><path d="m260 640h40v40h-40z" fill="#56554d"/><path d="m300 640h40v40h-40z" fill="#003039"/><path d="m340 640h40v40h-40z" fill="#580f00"/><path d="m380 640h40v40h-40z" fill="#56554d"/><path d="m420 640h40v40h-40z" fill="#758386"/><path d="m460 640h40v40h-40z" fill="#758386"/><path d="m500 640h40v40h-40z" fill="#56554d"/><path d="m540 640h40v40h-40z" fill="#580f00"/><path d="m580 640h40v40h-40z" fill="#360006"/><path d="m620 640h40v40h-40z" fill="#56554d"/><path d="m660 640h40v40h-40z" fill="#003039"/><path d="m700 640h40v40h-40z" fill="#580f00"/><path d="m740 640h40v40h-40z" fill="#360006"/><path d="m140 680h40v40h-40z" fill="#360006"/><path d="m180 680h40v40h-40z" fill="#a8521c"/><path d="m220 680h40v40h-40z" fill="#360006"/><path d="m260 680h40v40h-40z" fill="#56554d"/><path d="m300 680h40v40h-40z" fill="#003039"/><path d="m340 680h40v40h-40z" fill="#833216"/><path d="m380 680h40v40h-40z" fill="#a8521c"/><path d="m420 680h40v40h-40z" fill="#bc7139"/><path d="m460 680h40v40h-40z" fill="#bc7139"/><path d="m500 680h40v40h-40z" fill="#a8521c"/><path d="m540 680h40v40h-40z" fill="#833216"/><path d="m580 680h40v40h-40z" fill="#360006"/><path d="m620 680h40v40h-40z" fill="#56554d"/><path d="m660 680h40v40h-40z" fill="#003039"/><path d="m700 680h40v40h-40z" fill="#a8521c"/><path d="m740 680h40v40h-40z" fill="#360006"/><path d="m140 720h40v40h-40z" fill="#360006"/><path d="m180 720h40v40h-40z" fill="#833216"/><path d="m220 720h40v40h-40z" fill="#360006"/><path d="m260 720h40v40h-40z" fill="#56554d"/><path d="m300 720h40v40h-40z" fill="#003039"/><path d="m340 720h40v40h-40z" fill="#833216"/><path d="m380 720h40v40h-40z" fill="#833216"/><path d="m420 720h40v40h-40z" fill="#833216"/><path d="m460 720h40v40h-40z" fill="#833216"/><path d="m500 720h40v40h-40z" fill="#833216"/><path d="m540 720h40v40h-40z" fill="#833216"/><path d="m580 720h40v40h-40z" fill="#360006"/><path d="m620 720h40v40h-40z" fill="#56554d"/><path d="m660 720h40v40h-40z" fill="#003039"/><path d="m700 720h40v40h-40z" fill="#833216"/><path d="m740 720h40v40h-40z" fill="#360006"/><path d="m140 760h40v40h-40z" fill="#360006"/><path d="m180 760h40v40h-40z" fill="#580f00"/><path d="m220 760h40v40h-40z" fill="#360006"/><path d="m260 760h40v40h-40z" fill="#56554d"/><path d="m300 760h40v40h-40z" fill="#003039"/><path d="m340 760h40v40h-40z" fill="#580f00"/><path d="m380 760h40v40h-40z" fill="#580f00"/><path d="m420 760h40v40h-40z" fill="#580f00"/><path d="m460 760h40v40h-40z" fill="#580f00"/><path d="m500 760h40v40h-40z" fill="#580f00"/><path d="m540 760h40v40h-40z" fill="#580f00"/><path d="m580 760h40v40h-40z" fill="#360006"/><path d="m620 760h40v40h-40z" fill="#56554d"/><path d="m660 760h40v40h-40z" fill="#003039"/><path d="m700 760h40v40h-40z" fill="#580f00"/><path d="m740 760h40v40h-40z" fill="#360006"/><path d="m140 800h40v40h-40z" fill="#360006"/><path d="m180 800h40v40h-40z" fill="#a8521c"/><path d="m220 800h40v40h-40z" fill="#360006"/><path d="m260 800h40v40h-40z" fill="#56554d"/><path d="m300 800h40v40h-40z" fill="#003039"/><path d="m340 800h40v40h-40z" fill="#833216"/><path d="m380 800h40v40h-40z" fill="#a8521c"/><path d="m420 800h40v40h-40z" fill="#a8521c"/><path d="m460 800h40v40h-40z" fill="#a8521c"/><path d="m500 800h40v40h-40z" fill="#a8521c"/><path d="m540 800h40v40h-40z" fill="#833216"/><path d="m580 800h40v40h-40z" fill="#360006"/><path d="m620 800h40v40h-40z" fill="#56554d"/><path d="m660 800h40v40h-40z" fill="#003039"/><path d="m700 800h40v40h-40z" fill="#a8521c"/><path d="m740 800h40v40h-40z" fill="#360006"/><path d="m140 840h40v40h-40z" fill="#360006"/><path d="m180 840h40v40h-40z" fill="#833216"/><path d="m220 840h40v40h-40z" fill="#360006"/><path d="m260 840h40v40h-40z" fill="#56554d"/><path d="m300 840h40v40h-40z" fill="#003039"/><path d="m340 840h40v40h-40z" fill="#833216"/><path d="m380 840h40v40h-40z" fill="#833216"/><path d="m420 840h40v40h-40z" fill="#833216"/><path d="m460 840h40v40h-40z" fill="#833216"/><path d="m500 840h40v40h-40z" fill="#833216"/><path d="m540 840h40v40h-40z" fill="#833216"/><path d="m580 840h40v40h-40z" fill="#360006"/><path d="m620 840h40v40h-40z" fill="#56554d"/><path d="m660 840h40v40h-40z" fill="#003039"/><path d="m700 840h40v40h-40z" fill="#833216"/><path d="m740 840h40v40h-40z" fill="#360006"/><path d="m180 880h40v40h-40z" fill="#360006"/><path d="m220 880h40v40h-40z" fill="#360006"/><path d="m260 880h40v40h-40z" fill="#003039"/><path d="m300 880h40v40h-40z" fill="#003039"/><g fill="#360006"><path d="m340 880h40v40h-40z"/><path d="m380 880h40v40h-40z"/><path d="m420 880h40v40h-40z"/><path d="m460 880h40v40h-40z"/><path d="m500 880h40v40h-40z"/><path d="m540 880h40v40h-40z"/><path d="m580 880h40v40h-40z"/></g><path d="m620 880h40v40h-40z" fill="#003039"/><path d="m660 880h40v40h-40z" fill="#003039"/><path d="m700 880h40v40h-40z" fill="#360006"/></svg>