<svg height="33.75" viewBox="0 0 1350 1350" width="33.75" xmlns="http://www.w3.org/2000/svg" xmlns:xlink="http://www.w3.org/1999/xlink"><clipPath id="a"><path d="m260 0v40h-40v40h-40v40h-40v40 40 40 40 40 40 40 40 40 40 40 40 40 40 40 40 40 40 40h40v40h40 40 40 40 40 40 40 40 40 40 40 40 40 40v-40h40v-40-40-40-40-40-40-40-40-40-40-40-40-40-40-40-40-40-40-40h-40v-40h-40v-40h-40v-40h-40-40-40-40-40-40-40-40-40z"/></clipPath><path d="m0 0h1350v1350h-1350z" fill="#feebd6"/><g clip-path="url(#a)" stroke-width="1.2" transform="translate(215 215)"><path d="m256-4h48v48h-48z" fill="#003039"/><path d="m296-4h48v48h-48z" fill="#003039"/><g fill="#580f00"><path d="m336-4h48v48h-48z"/><path d="m376-4h48v48h-48z"/><path d="m416-4h48v48h-48z"/><path d="m456-4h48v48h-48z"/><path d="m496-4h48v48h-48z"/><path d="m536-4h48v48h-48z"/></g><g fill="#003039"><path d="m576-4h48v48h-48z"/><path d="m616-4h48v48h-48z"/><path d="m216 36h48v48h-48z"/></g><path d="m256 36h48v48h-48z" fill="#56554d"/><path d="m296 36h48v48h-48z" fill="#003039"/><g fill="#a8521c"><path d="m336 36h48v48h-48z"/><path d="m376 36h48v48h-48z"/><path d="m416 36h48v48h-48z"/><path d="m456 36h48v48h-48z"/><path d="m496 36h48v48h-48z"/></g><path d="m536 36h48v48h-48z" fill="#833216"/><path d="m576 36h48v48h-48z" fill="#003039"/><path d="m616 36h48v48h-48z" fill="#56554d"/><path d="m656 36h48v48h-48z" fill="#003039"/><path d="m176 76h48v48h-48z" fill="#580f00"/><path d="m216 76h48v48h-48z" fill="#003039"/><path d="m256 76h48v48h-48z" fill="#758386"/><path d="m296 76h48v48h-48z" fill="#003039"/><path d="m336 76h48v48h-48z" fill="#bc7139"/><path d="m376 76h48v48h-48z" fill="#bc7139"/><path d="m416 76h48v48h-48z" fill="#d38b47"/><path d="m456 76h48v48h-48z" fill="#bc7139"/><path d="m496 76h48v48h-48z" fill="#bc7139"/><path d="m536 76h48v48h-48z" fill="#a8521c"/><path d="m576 76h48v48h-48z" fill="#003039"/><path d="m616 76h48v48h-48z" fill="#758386"/><path d="m656 76h48v48h-48z" fill="#56554d"/><g fill="#580f00"><path d="m696 76h48v48h-48z"/><path d="m136 116h48v48h-48z"/><path d="m176 116h48v48h-48z"/></g><path d="m216 116h48v48h-48z" fill="#003039"/><path d="m256 116h48v48h-48z" fill="#9ab0b3"/><path d="m296 116h48v48h-48z" fill="#56554d"/><path d="m336 116h48v48h-48z" fill="#bc7139"/><g fill="#d38b47"><path d="m376 116h48v48h-48z"/><path d="m416 116h48v48h-48z"/><path d="m456 116h48v48h-48z"/></g><path d="m496 116h48v48h-48z" fill="#bc7139"/><path d="m536 116h48v48h-48z" fill="#a8521c"/><path d="m576 116h48v48h-48z" fill="#003039"/><path d="m616 116h48v48h-48z" fill="#9ab0b3"/><path d="m656 116h48v48h-48z" fill="#56554d"/><g fill="#580f00"><path d="m696 116h48v48h-48z"/><path d="m736 116h48v48h-48z"/><path d="m136 156h48v48h-48z"/></g><path d="m176 156h48v48h-48z" fill="#833216"/><path d="m216 156h48v48h-48z" fill="#003039"/><path d="m256 156h48v48h-48z" fill="#d0e4f6"/><path d="m296 156h48v48h-48z" fill="#56554d"/><g fill="#a8521c"><path d="m336 156h48v48h-48z"/><path d="m376 156h48v48h-48z"/><path d="m416 156h48v48h-48z"/><path d="m456 156h48v48h-48z"/></g><path d="m496 156h48v48h-48z" fill="#833216"/><path d="m536 156h48v48h-48z" fill="#833216"/><path d="m576 156h48v48h-48z" fill="#003039"/><path d="m616 156h48v48h-48z" fill="#d0e4f6"/><path d="m656 156h48v48h-48z" fill="#56554d"/><path d="m696 156h48v48h-48z" fill="#833216"/><g fill="#580f00"><path d="m736 156h48v48h-48z"/><path d="m136 196h48v48h-48z"/><path d="m176 196h48v48h-48z"/></g><path d="m216 196h48v48h-48z" fill="#003039"/><path d="m256 196h48v48h-48z" fill="#d0e4f6"/><path d="m296 196h48v48h-48z" fill="#56554d"/><g fill="#bc7139"><path d="m336 196h48v48h-48z"/><path d="m376 196h48v48h-48z"/><path d="m416 196h48v48h-48z"/></g><path d="m456 196h48v48h-48z" fill="#d38b47"/><path d="m496 196h48v48h-48z" fill="#bc7139"/><path d="m536 196h48v48h-48z" fill="#a8521c"/><path d="m576 196h48v48h-48z" fill="#003039"/><path d="m616 196h48v48h-48z" fill="#d0e4f6"/><path d="m656 196h48v48h-48z" fill="#56554d"/><path d="m696 196h48v48h-48z" fill="#a8521c"/><path d="m736 196h48v48h-48z" fill="#580f00"/><path d="m136 236h48v48h-48z" fill="#580f00"/><path d="m176 236h48v48h-48z" fill="#a8521c"/><path d="m216 236h48v48h-48z" fill="#003039"/><path d="m256 236h48v48h-48z" fill="#9ab0b3"/><path d="m296 236h48v48h-48z" fill="#56554d"/><path d="m336 236h48v48h-48z" fill="#bc7139"/><path d="m376 236h48v48h-48z" fill="#bc7139"/><path d="m416 236h48v48h-48z" fill="#d38b47"/><path d="m456 236h48v48h-48z" fill="#bc7139"/><path d="m496 236h48v48h-48z" fill="#d38b47"/><path d="m536 236h48v48h-48z" fill="#a8521c"/><path d="m576 236h48v48h-48z" fill="#003039"/><path d="m616 236h48v48h-48z" fill="#9ab0b3"/><path d="m656 236h48v48h-48z" fill="#56554d"/><path d="m696 236h48v48h-48z" fill="#d38b47"/><path d="m736 236h48v48h-48z" fill="#580f00"/><path d="m136 276h48v48h-48z" fill="#580f00"/><path d="m176 276h48v48h-48z" fill="#a8521c"/><path d="m216 276h48v48h-48z" fill="#003039"/><path d="m256 276h48v48h-48z" fill="#9ab0b3"/><path d="m296 276h48v48h-48z" fill="#56554d"/><path d="m336 276h48v48h-48z" fill="#bc7139"/><g fill="#d38b47"><path d="m376 276h48v48h-48z"/><path d="m416 276h48v48h-48z"/><path d="m456 276h48v48h-48z"/></g><path d="m496 276h48v48h-48z" fill="#bc7139"/><path d="m536 276h48v48h-48z" fill="#a8521c"/><path d="m576 276h48v48h-48z" fill="#003039"/><path d="m616 276h48v48h-48z" fill="#9ab0b3"/><path d="m656 276h48v48h-48z" fill="#56554d"/><path d="m696 276h48v48h-48z" fill="#e5ab54"/><path d="m736 276h48v48h-48z" fill="#580f00"/><path d="m136 316h48v48h-48z" fill="#580f00"/><path d="m176 316h48v48h-48z" fill="#a8521c"/><path d="m216 316h48v48h-48z" fill="#003039"/><path d="m256 316h48v48h-48z" fill="#758386"/><path d="m296 316h48v48h-48z" fill="#56554d"/><g fill="#a8521c"><path d="m336 316h48v48h-48z"/><path d="m376 316h48v48h-48z"/><path d="m416 316h48v48h-48z"/><path d="m456 316h48v48h-48z"/></g><path d="m496 316h48v48h-48z" fill="#833216"/><path d="m536 316h48v48h-48z" fill="#833216"/><path d="m576 316h48v48h-48z" fill="#003039"/><path d="m616 316h48v48h-48z" fill="#758386"/><path d="m656 316h48v48h-48z" fill="#56554d"/><path d="m696 316h48v48h-48z" fill="#d38b47"/><path d="m736 316h48v48h-48z" fill="#580f00"/><path d="m136 356h48v48h-48z" fill="#580f00"/><path d="m176 356h48v48h-48z" fill="#833216"/><path d="m216 356h48v48h-48z" fill="#003039"/><path d="m256 356h48v48h-48z" fill="#758386"/><path d="m296 356h48v48h-48z" fill="#56554d"/><g fill="#bc7139"><path d="m336 356h48v48h-48z"/><path d="m376 356h48v48h-48z"/><path d="m416 356h48v48h-48z"/><path d="m456 356h48v48h-48z"/><path d="m496 356h48v48h-48z"/></g><path d="m536 356h48v48h-48z" fill="#a8521c"/><path d="m576 356h48v48h-48z" fill="#003039"/><path d="m616 356h48v48h-48z" fill="#758386"/><path d="m656 356h48v48h-48z" fill="#56554d"/><path d="m696 356h48v48h-48z" fill="#a8521c"/><path d="m736 356h48v48h-48z" fill="#250000"/><path d="m136 396h48v48h-48z" fill="#580f00"/><path d="m176 396h48v48h-48z" fill="#a8521c"/><path d="m216 396h48v48h-48z" fill="#003039"/><path d="m256 396h48v48h-48z" fill="#56554d"/><path d="m296 396h48v48h-48z" fill="#56554d"/><path d="m336 396h48v48h-48z" fill="#bc7139"/><g fill="#d38b47"><path d="m376 396h48v48h-48z"/><path d="m416 396h48v48h-48z"/><path d="m456 396h48v48h-48z"/></g><path d="m496 396h48v48h-48z" fill="#bc7139"/><path d="m536 396h48v48h-48z" fill="#a8521c"/><path d="m576 396h48v48h-48z" fill="#003039"/><path d="m616 396h48v48h-48z" fill="#56554d"/><path d="m656 396h48v48h-48z" fill="#56554d"/><path d="m696 396h48v48h-48z" fill="#bc7139"/><path d="m736 396h48v48h-48z" fill="#250000"/><path d="m136 436h48v48h-48z" fill="#580f00"/><path d="m176 436h48v48h-48z" fill="#a8521c"/><path d="m216 436h48v48h-48z" fill="#360006"/><path d="m256 436h48v48h-48z" fill="#56554d"/><path d="m296 436h48v48h-48z" fill="#003039"/><g fill="#a8521c"><path d="m336 436h48v48h-48z"/><path d="m376 436h48v48h-48z"/><path d="m416 436h48v48h-48z"/><path d="m456 436h48v48h-48z"/><path d="m496 436h48v48h-48z"/><path d="m536 436h48v48h-48z"/></g><path d="m576 436h48v48h-48z" fill="#360006"/><path d="m616 436h48v48h-48z" fill="#56554d"/><path d="m656 436h48v48h-48z" fill="#003039"/><path d="m696 436h48v48h-48z" fill="#a8521c"/><path d="m736 436h48v48h-48z" fill="#250000"/><path d="m136 476h48v48h-48z" fill="#580f00"/><path d="m176 476h48v48h-48z" fill="#833216"/><path d="m216 476h48v48h-48z" fill="#360006"/><path d="m256 476h48v48h-48z" fill="#003039"/><path d="m296 476h48v48h-48z" fill="#360006"/><g fill="#833216"><path d="m336 476h48v48h-48z"/><path d="m376 476h48v48h-48z"/><path d="m416 476h48v48h-48z"/><path d="m456 476h48v48h-48z"/><path d="m496 476h48v48h-48z"/><path d="m536 476h48v48h-48z"/></g><path d="m576 476h48v48h-48z" fill="#360006"/><path d="m616 476h48v48h-48z" fill="#003039"/><path d="m656 476h48v48h-48z" fill="#360006"/><path d="m696 476h48v48h-48z" fill="#833216"/><path d="m736 476h48v48h-48z" fill="#250000"/><path d="m136 516h48v48h-48z" fill="#580f00"/><path d="m176 516h48v48h-48z" fill="#580f00"/><path d="m216 516h48v48h-48z" fill="#360006"/><path d="m256 516h48v48h-48z" fill="#003039"/><path d="m296 516h48v48h-48z" fill="#360006"/><path d="m336 516h48v48h-48z" fill="#580f00"/><path d="m376 516h48v48h-48z" fill="#003039"/><path d="m416 516h48v48h-48z" fill="#758386"/><path d="m456 516h48v48h-48z" fill="#758386"/><path d="m496 516h48v48h-48z" fill="#56554d"/><path d="m536 516h48v48h-48z" fill="#580f00"/><path d="m576 516h48v48h-48z" fill="#360006"/><path d="m616 516h48v48h-48z" fill="#003039"/><path d="m656 516h48v48h-48z" fill="#360006"/><path d="m696 516h48v48h-48z" fill="#580f00"/><path d="m736 516h48v48h-48z" fill="#250000"/><path d="m136 556h48v48h-48z" fill="#360006"/><path d="m176 556h48v48h-48z" fill="#833216"/><path d="m216 556h48v48h-48z" fill="#360006"/><path d="m256 556h48v48h-48z" fill="#56554d"/><path d="m296 556h48v48h-48z" fill="#003039"/><path d="m336 556h48v48h-48z" fill="#580f00"/><path d="m376 556h48v48h-48z" fill="#56554d"/><path d="m416 556h48v48h-48z" fill="#003039"/><path d="m456 556h48v48h-48z" fill="#003039"/><path d="m496 556h48v48h-48z" fill="#56554d"/><path d="m536 556h48v48h-48z" fill="#833216"/><path d="m576 556h48v48h-48z" fill="#360006"/><path d="m616 556h48v48h-48z" fill="#56554d"/><path d="m656 556h48v48h-48z" fill="#003039"/><path d="m696 556h48v48h-48z" fill="#833216"/><path d="m736 556h48v48h-48z" fill="#360006"/><path d="m136 596h48v48h-48z" fill="#360006"/><path d="m176 596h48v48h-48z" fill="#833216"/><path d="m216 596h48v48h-48z" fill="#360006"/><path d="m256 596h48v48h-48z" fill="#56554d"/><path d="m296 596h48v48h-48z" fill="#003039"/><path d="m336 596h48v48h-48z" fill="#833216"/><path d="m376 596h48v48h-48z" fill="#56554d"/><path d="m416 596h48v48h-48z" fill="#580f00"/><path d="m456 596h48v48h-48z" fill="#580f00"/><path d="m496 596h48v48h-48z" fill="#56554d"/><path d="m536 596h48v48h-48z" fill="#833216"/><path d="m576 596h48v48h-48z" fill="#360006"/><path d="m616 596h48v48h-48z" fill="#56554d"/><path d="m656 596h48v48h-48z" fill="#003039"/><path d="m696 596h48v48h-48z" fill="#833216"/><path d="m736 596h48v48h-48z" fill="#360006"/><path d="m136 636h48v48h-48z" fill="#360006"/><path d="m176 636h48v48h-48z" fill="#580f00"/><path d="m216 636h48v48h-48z" fill="#360006"/><path d="m256 636h48v48h-48z" fill="#56554d"/><path d="m296 636h48v48h-48z" fill="#003039"/><path d="m336 636h48v48h-48z" fill="#580f00"/><path d="m376 636h48v48h-48z" fill="#56554d"/><path d="m416 636h48v48h-48z" fill="#758386"/><path d="m456 636h48v48h-48z" fill="#758386"/><path d="m496 636h48v48h-48z" fill="#56554d"/><path d="m536 636h48v48h-48z" fill="#580f00"/><path d="m576 636h48v48h-48z" fill="#360006"/><path d="m616 636h48v48h-48z" fill="#56554d"/><path d="m656 636h48v48h-48z" fill="#003039"/><path d="m696 636h48v48h-48z" fill="#580f00"/><path d="m736 636h48v48h-48z" fill="#360006"/><path d="m136 676h48v48h-48z" fill="#360006"/><path d="m176 676h48v48h-48z" fill="#a8521c"/><path d="m216 676h48v48h-48z" fill="#360006"/><path d="m256 676h48v48h-48z" fill="#56554d"/><path d="m296 676h48v48h-48z" fill="#003039"/><path d="m336 676h48v48h-48z" fill="#833216"/><path d="m376 676h48v48h-48z" fill="#a8521c"/><path d="m416 676h48v48h-48z" fill="#bc7139"/><path d="m456 676h48v48h-48z" fill="#bc7139"/><path d="m496 676h48v48h-48z" fill="#a8521c"/><path d="m536 676h48v48h-48z" fill="#833216"/><path d="m576 676h48v48h-48z" fill="#360006"/><path d="m616 676h48v48h-48z" fill="#56554d"/><path d="m656 676h48v48h-48z" fill="#003039"/><path d="m696 676h48v48h-48z" fill="#a8521c"/><path d="m736 676h48v48h-48z" fill="#360006"/><path d="m136 716h48v48h-48z" fill="#360006"/><path d="m176 716h48v48h-48z" fill="#833216"/><path d="m216 716h48v48h-48z" fill="#360006"/><path d="m256 716h48v48h-48z" fill="#56554d"/><path d="m296 716h48v48h-48z" fill="#003039"/><g fill="#833216"><path d="m336 716h48v48h-48z"/><path d="m376 716h48v48h-48z"/><path d="m416 716h48v48h-48z"/><path d="m456 716h48v48h-48z"/><path d="m496 716h48v48h-48z"/><path d="m536 716h48v48h-48z"/></g><path d="m576 716h48v48h-48z" fill="#360006"/><path d="m616 716h48v48h-48z" fill="#56554d"/><path d="m656 716h48v48h-48z" fill="#003039"/><path d="m696 716h48v48h-48z" fill="#833216"/><path d="m736 716h48v48h-48z" fill="#360006"/><path d="m136 756h48v48h-48z" fill="#360006"/><path d="m176 756h48v48h-48z" fill="#580f00"/><path d="m216 756h48v48h-48z" fill="#360006"/><path d="m256 756h48v48h-48z" fill="#56554d"/><path d="m296 756h48v48h-48z" fill="#003039"/><g fill="#580f00"><path d="m336 756h48v48h-48z"/><path d="m376 756h48v48h-48z"/><path d="m416 756h48v48h-48z"/><path d="m456 756h48v48h-48z"/><path d="m496 756h48v48h-48z"/><path d="m536 756h48v48h-48z"/></g><path d="m576 756h48v48h-48z" fill="#360006"/><path d="m616 756h48v48h-48z" fill="#56554d"/><path d="m656 756h48v48h-48z" fill="#003039"/><path d="m696 756h48v48h-48z" fill="#580f00"/><path d="m736 756h48v48h-48z" fill="#360006"/><path d="m136 796h48v48h-48z" fill="#360006"/><path d="m176 796h48v48h-48z" fill="#a8521c"/><path d="m216 796h48v48h-48z" fill="#360006"/><path d="m256 796h48v48h-48z" fill="#56554d"/><path d="m296 796h48v48h-48z" fill="#003039"/><path d="m336 796h48v48h-48z" fill="#833216"/><g fill="#a8521c"><path d="m376 796h48v48h-48z"/><path d="m416 796h48v48h-48z"/><path d="m456 796h48v48h-48z"/><path d="m496 796h48v48h-48z"/></g><path d="m536 796h48v48h-48z" fill="#833216"/><path d="m576 796h48v48h-48z" fill="#360006"/><path d="m616 796h48v48h-48z" fill="#56554d"/><path d="m656 796h48v48h-48z" fill="#003039"/><path d="m696 796h48v48h-48z" fill="#a8521c"/><path d="m736 796h48v48h-48z" fill="#360006"/><path d="m136 836h48v48h-48z" fill="#360006"/><path d="m176 836h48v48h-48z" fill="#833216"/><path d="m216 836h48v48h-48z" fill="#360006"/><path d="m256 836h48v48h-48z" fill="#56554d"/><path d="m296 836h48v48h-48z" fill="#003039"/><g fill="#833216"><path d="m336 836h48v48h-48z"/><path d="m376 836h48v48h-48z"/><path d="m416 836h48v48h-48z"/><path d="m456 836h48v48h-48z"/><path d="m496 836h48v48h-48z"/><path d="m536 836h48v48h-48z"/></g><path d="m576 836h48v48h-48z" fill="#360006"/><path d="m616 836h48v48h-48z" fill="#56554d"/><path d="m656 836h48v48h-48z" fill="#003039"/><path d="m696 836h48v48h-48z" fill="#833216"/><g fill="#360006"><path d="m736 836h48v48h-48z"/><path d="m176 876h48v48h-48z"/><path d="m216 876h48v48h-48z"/></g><path d="m256 876h48v48h-48z" fill="#003039"/><path d="m296 876h48v48h-48z" fill="#003039"/><g fill="#360006"><path d="m336 876h48v48h-48z"/><path d="m376 876h48v48h-48z"/><path d="m416 876h48v48h-48z"/><path d="m456 876h48v48h-48z"/><path d="m496 876h48v48h-48z"/><path d="m536 876h48v48h-48z"/><path d="m576 876h48v48h-48z"/></g><path d="m616 876h48v48h-48z" fill="#003039"/><path d="m656 876h48v48h-48z" fill="#003039"/><path d="m696 876h48v48h-48z" fill="#360006"/></g><path d="m475 215h40v40h-40z" fill="#003039"/><path d="m515 215h40v40h-40z" fill="#003039"/><g fill="#580f00" transform="translate(215 215)"><path d="m340 0h40v40h-40z"/><path d="m380 0h40v40h-40z"/><path d="m420 0h40v40h-40z"/><path d="m460 0h40v40h-40z"/><path d="m500 0h40v40h-40z"/><path d="m540 0h40v40h-40z"/></g><g fill="#003039"><path d="m795 215h40v40h-40z"/><path d="m835 215h40v40h-40z"/><path d="m435 255h40v40h-40z"/></g><path d="m475 255h40v40h-40z" fill="#56554d"/><path d="m515 255h40v40h-40z" fill="#003039"/><g fill="#a8521c"><path d="m555 255h40v40h-40z"/><path d="m595 255h40v40h-40z"/><path d="m635 255h40v40h-40z"/><path d="m675 255h40v40h-40z"/><path d="m715 255h40v40h-40z"/></g><path d="m755 255h40v40h-40z" fill="#833216"/><path d="m795 255h40v40h-40z" fill="#003039"/><path d="m835 255h40v40h-40z" fill="#56554d"/><path d="m875 255h40v40h-40z" fill="#003039"/><path d="m395 295h40v40h-40z" fill="#580f00"/><path d="m435 295h40v40h-40z" fill="#003039"/><path d="m475 295h40v40h-40z" fill="#758386"/><path d="m515 295h40v40h-40z" fill="#003039"/><path d="m555 295h40v40h-40z" fill="#bc7139"/><path d="m595 295h40v40h-40z" fill="#bc7139"/><path d="m635 295h40v40h-40z" fill="#d38b47"/><path d="m675 295h40v40h-40z" fill="#bc7139"/><path d="m715 295h40v40h-40z" fill="#bc7139"/><path d="m755 295h40v40h-40z" fill="#a8521c"/><path d="m795 295h40v40h-40z" fill="#003039"/><path d="m835 295h40v40h-40z" fill="#758386"/><path d="m875 295h40v40h-40z" fill="#56554d"/><g fill="#580f00"><path d="m915 295h40v40h-40z"/><path d="m355 335h40v40h-40z"/><path d="m395 335h40v40h-40z"/></g><path d="m435 335h40v40h-40z" fill="#003039"/><path d="m475 335h40v40h-40z" fill="#9ab0b3"/><path d="m515 335h40v40h-40z" fill="#56554d"/><path d="m555 335h40v40h-40z" fill="#bc7139"/><g fill="#d38b47"><path d="m595 335h40v40h-40z"/><path d="m635 335h40v40h-40z"/><path d="m675 335h40v40h-40z"/></g><path d="m715 335h40v40h-40z" fill="#bc7139"/><path d="m755 335h40v40h-40z" fill="#a8521c"/><path d="m795 335h40v40h-40z" fill="#003039"/><path d="m835 335h40v40h-40z" fill="#9ab0b3"/><path d="m875 335h40v40h-40z" fill="#56554d"/><g fill="#580f00"><path d="m915 335h40v40h-40z"/><path d="m955 335h40v40h-40z"/><path d="m355 375h40v40h-40z"/></g><path d="m395 375h40v40h-40z" fill="#833216"/><path d="m435 375h40v40h-40z" fill="#003039"/><path d="m475 375h40v40h-40z" fill="#d0e4f6"/><path d="m515 375h40v40h-40z" fill="#56554d"/><g fill="#a8521c"><path d="m555 375h40v40h-40z"/><path d="m595 375h40v40h-40z"/><path d="m635 375h40v40h-40z"/><path d="m675 375h40v40h-40z"/></g><path d="m715 375h40v40h-40z" fill="#833216"/><path d="m755 375h40v40h-40z" fill="#833216"/><path d="m795 375h40v40h-40z" fill="#003039"/><path d="m835 375h40v40h-40z" fill="#d0e4f6"/><path d="m875 375h40v40h-40z" fill="#56554d"/><path d="m915 375h40v40h-40z" fill="#833216"/><g fill="#580f00"><path d="m955 375h40v40h-40z"/><path d="m355 415h40v40h-40z"/><path d="m395 415h40v40h-40z"/></g><path d="m435 415h40v40h-40z" fill="#003039"/><path d="m475 415h40v40h-40z" fill="#d0e4f6"/><path d="m515 415h40v40h-40z" fill="#56554d"/><g fill="#bc7139"><path d="m555 415h40v40h-40z"/><path d="m595 415h40v40h-40z"/><path d="m635 415h40v40h-40z"/></g><path d="m675 415h40v40h-40z" fill="#d38b47"/><path d="m715 415h40v40h-40z" fill="#bc7139"/><path d="m755 415h40v40h-40z" fill="#a8521c"/><path d="m795 415h40v40h-40z" fill="#003039"/><path d="m835 415h40v40h-40z" fill="#d0e4f6"/><path d="m875 415h40v40h-40z" fill="#56554d"/><path d="m915 415h40v40h-40z" fill="#a8521c"/><path d="m955 415h40v40h-40z" fill="#580f00"/><path d="m355 455h40v40h-40z" fill="#580f00"/><path d="m395 455h40v40h-40z" fill="#a8521c"/><path d="m435 455h40v40h-40z" fill="#003039"/><path d="m475 455h40v40h-40z" fill="#9ab0b3"/><path d="m515 455h40v40h-40z" fill="#56554d"/><path d="m555 455h40v40h-40z" fill="#bc7139"/><path d="m595 455h40v40h-40z" fill="#bc7139"/><path d="m635 455h40v40h-40z" fill="#d38b47"/><path d="m675 455h40v40h-40z" fill="#bc7139"/><path d="m715 455h40v40h-40z" fill="#d38b47"/><path d="m755 455h40v40h-40z" fill="#a8521c"/><path d="m795 455h40v40h-40z" fill="#003039"/><path d="m835 455h40v40h-40z" fill="#9ab0b3"/><path d="m875 455h40v40h-40z" fill="#56554d"/><path d="m915 455h40v40h-40z" fill="#d38b47"/><path d="m955 455h40v40h-40z" fill="#580f00"/><path d="m355 495h40v40h-40z" fill="#580f00"/><path d="m395 495h40v40h-40z" fill="#a8521c"/><path d="m435 495h40v40h-40z" fill="#003039"/><path d="m475 495h40v40h-40z" fill="#9ab0b3"/><path d="m515 495h40v40h-40z" fill="#56554d"/><path d="m555 495h40v40h-40z" fill="#bc7139"/><g fill="#d38b47"><path d="m595 495h40v40h-40z"/><path d="m635 495h40v40h-40z"/><path d="m675 495h40v40h-40z"/></g><path d="m715 495h40v40h-40z" fill="#bc7139"/><path d="m755 495h40v40h-40z" fill="#a8521c"/><path d="m795 495h40v40h-40z" fill="#003039"/><path d="m835 495h40v40h-40z" fill="#9ab0b3"/><path d="m875 495h40v40h-40z" fill="#56554d"/><path d="m915 495h40v40h-40z" fill="#e5ab54"/><path d="m955 495h40v40h-40z" fill="#580f00"/><path d="m355 535h40v40h-40z" fill="#580f00"/><path d="m395 535h40v40h-40z" fill="#a8521c"/><path d="m435 535h40v40h-40z" fill="#003039"/><path d="m475 535h40v40h-40z" fill="#758386"/><path d="m515 535h40v40h-40z" fill="#56554d"/><g fill="#a8521c"><path d="m555 535h40v40h-40z"/><path d="m595 535h40v40h-40z"/><path d="m635 535h40v40h-40z"/><path d="m675 535h40v40h-40z"/></g><path d="m715 535h40v40h-40z" fill="#833216"/><path d="m755 535h40v40h-40z" fill="#833216"/><path d="m795 535h40v40h-40z" fill="#003039"/><path d="m835 535h40v40h-40z" fill="#758386"/><path d="m875 535h40v40h-40z" fill="#56554d"/><path d="m915 535h40v40h-40z" fill="#d38b47"/><path d="m955 535h40v40h-40z" fill="#580f00"/><path d="m355 575h40v40h-40z" fill="#580f00"/><path d="m395 575h40v40h-40z" fill="#833216"/><path d="m435 575h40v40h-40z" fill="#003039"/><path d="m475 575h40v40h-40z" fill="#758386"/><path d="m515 575h40v40h-40z" fill="#56554d"/><g fill="#bc7139"><path d="m555 575h40v40h-40z"/><path d="m595 575h40v40h-40z"/><path d="m635 575h40v40h-40z"/><path d="m675 575h40v40h-40z"/><path d="m715 575h40v40h-40z"/></g><path d="m755 575h40v40h-40z" fill="#a8521c"/><path d="m795 575h40v40h-40z" fill="#003039"/><path d="m835 575h40v40h-40z" fill="#758386"/><path d="m875 575h40v40h-40z" fill="#56554d"/><path d="m915 575h40v40h-40z" fill="#a8521c"/><path d="m955 575h40v40h-40z" fill="#250000"/><path d="m355 615h40v40h-40z" fill="#580f00"/><path d="m395 615h40v40h-40z" fill="#a8521c"/><path d="m435 615h40v40h-40z" fill="#003039"/><path d="m475 615h40v40h-40z" fill="#56554d"/><path d="m515 615h40v40h-40z" fill="#56554d"/><path d="m555 615h40v40h-40z" fill="#bc7139"/><g fill="#d38b47"><path d="m595 615h40v40h-40z"/><path d="m635 615h40v40h-40z"/><path d="m675 615h40v40h-40z"/></g><path d="m715 615h40v40h-40z" fill="#bc7139"/><path d="m755 615h40v40h-40z" fill="#a8521c"/><path d="m795 615h40v40h-40z" fill="#003039"/><path d="m835 615h40v40h-40z" fill="#56554d"/><path d="m875 615h40v40h-40z" fill="#56554d"/><path d="m915 615h40v40h-40z" fill="#bc7139"/><path d="m955 615h40v40h-40z" fill="#250000"/><path d="m355 655h40v40h-40z" fill="#580f00"/><path d="m395 655h40v40h-40z" fill="#a8521c"/><path d="m435 655h40v40h-40z" fill="#360006"/><path d="m475 655h40v40h-40z" fill="#56554d"/><path d="m515 655h40v40h-40z" fill="#003039"/><g fill="#a8521c"><path d="m555 655h40v40h-40z"/><path d="m595 655h40v40h-40z"/><path d="m635 655h40v40h-40z"/><path d="m675 655h40v40h-40z"/><path d="m715 655h40v40h-40z"/><path d="m755 655h40v40h-40z"/></g><path d="m795 655h40v40h-40z" fill="#360006"/><path d="m835 655h40v40h-40z" fill="#56554d"/><path d="m875 655h40v40h-40z" fill="#003039"/><path d="m915 655h40v40h-40z" fill="#a8521c"/><path d="m955 655h40v40h-40z" fill="#250000"/><path d="m355 695h40v40h-40z" fill="#580f00"/><path d="m395 695h40v40h-40z" fill="#833216"/><path d="m435 695h40v40h-40z" fill="#360006"/><path d="m475 695h40v40h-40z" fill="#003039"/><path d="m515 695h40v40h-40z" fill="#360006"/><g fill="#833216"><path d="m555 695h40v40h-40z"/><path d="m595 695h40v40h-40z"/><path d="m635 695h40v40h-40z"/><path d="m675 695h40v40h-40z"/><path d="m715 695h40v40h-40z"/><path d="m755 695h40v40h-40z"/></g><path d="m795 695h40v40h-40z" fill="#360006"/><path d="m835 695h40v40h-40z" fill="#003039"/><path d="m875 695h40v40h-40z" fill="#360006"/><path d="m915 695h40v40h-40z" fill="#833216"/><path d="m955 695h40v40h-40z" fill="#250000"/><path d="m355 735h40v40h-40z" fill="#580f00"/><path d="m395 735h40v40h-40z" fill="#580f00"/><path d="m435 735h40v40h-40z" fill="#360006"/><path d="m475 735h40v40h-40z" fill="#003039"/><path d="m515 735h40v40h-40z" fill="#360006"/><path d="m555 735h40v40h-40z" fill="#580f00"/><path d="m595 735h40v40h-40z" fill="#003039"/><path d="m635 735h40v40h-40z" fill="#758386"/><path d="m675 735h40v40h-40z" fill="#758386"/><path d="m715 735h40v40h-40z" fill="#56554d"/><path d="m755 735h40v40h-40z" fill="#580f00"/><path d="m795 735h40v40h-40z" fill="#360006"/><path d="m835 735h40v40h-40z" fill="#003039"/><path d="m875 735h40v40h-40z" fill="#360006"/><path d="m915 735h40v40h-40z" fill="#580f00"/><path d="m955 735h40v40h-40z" fill="#250000"/><path d="m355 775h40v40h-40z" fill="#360006"/><path d="m395 775h40v40h-40z" fill="#833216"/><path d="m435 775h40v40h-40z" fill="#360006"/><path d="m475 775h40v40h-40z" fill="#56554d"/><path d="m515 775h40v40h-40z" fill="#003039"/><path d="m555 775h40v40h-40z" fill="#580f00"/><path d="m595 775h40v40h-40z" fill="#56554d"/><path d="m635 775h40v40h-40z" fill="#003039"/><path d="m675 775h40v40h-40z" fill="#003039"/><path d="m715 775h40v40h-40z" fill="#56554d"/><path d="m755 775h40v40h-40z" fill="#833216"/><path d="m795 775h40v40h-40z" fill="#360006"/><path d="m835 775h40v40h-40z" fill="#56554d"/><path d="m875 775h40v40h-40z" fill="#003039"/><path d="m915 775h40v40h-40z" fill="#833216"/><path d="m955 775h40v40h-40z" fill="#360006"/><path d="m355 815h40v40h-40z" fill="#360006"/><path d="m395 815h40v40h-40z" fill="#833216"/><path d="m435 815h40v40h-40z" fill="#360006"/><path d="m475 815h40v40h-40z" fill="#56554d"/><path d="m515 815h40v40h-40z" fill="#003039"/><path d="m555 815h40v40h-40z" fill="#833216"/><path d="m595 815h40v40h-40z" fill="#56554d"/><path d="m635 815h40v40h-40z" fill="#580f00"/><path d="m675 815h40v40h-40z" fill="#580f00"/><path d="m715 815h40v40h-40z" fill="#56554d"/><path d="m755 815h40v40h-40z" fill="#833216"/><path d="m795 815h40v40h-40z" fill="#360006"/><path d="m835 815h40v40h-40z" fill="#56554d"/><path d="m875 815h40v40h-40z" fill="#003039"/><path d="m915 815h40v40h-40z" fill="#833216"/><path d="m955 815h40v40h-40z" fill="#360006"/><path d="m355 855h40v40h-40z" fill="#360006"/><path d="m395 855h40v40h-40z" fill="#580f00"/><path d="m435 855h40v40h-40z" fill="#360006"/><path d="m475 855h40v40h-40z" fill="#56554d"/><path d="m515 855h40v40h-40z" fill="#003039"/><path d="m555 855h40v40h-40z" fill="#580f00"/><path d="m595 855h40v40h-40z" fill="#56554d"/><path d="m635 855h40v40h-40z" fill="#758386"/><path d="m675 855h40v40h-40z" fill="#758386"/><path d="m715 855h40v40h-40z" fill="#56554d"/><path d="m755 855h40v40h-40z" fill="#580f00"/><path d="m795 855h40v40h-40z" fill="#360006"/><path d="m835 855h40v40h-40z" fill="#56554d"/><path d="m875 855h40v40h-40z" fill="#003039"/><path d="m915 855h40v40h-40z" fill="#580f00"/><path d="m955 855h40v40h-40z" fill="#360006"/><path d="m355 895h40v40h-40z" fill="#360006"/><path d="m395 895h40v40h-40z" fill="#a8521c"/><path d="m435 895h40v40h-40z" fill="#360006"/><path d="m475 895h40v40h-40z" fill="#56554d"/><path d="m515 895h40v40h-40z" fill="#003039"/><path d="m555 895h40v40h-40z" fill="#833216"/><path d="m595 895h40v40h-40z" fill="#a8521c"/><path d="m635 895h40v40h-40z" fill="#bc7139"/><path d="m675 895h40v40h-40z" fill="#bc7139"/><path d="m715 895h40v40h-40z" fill="#a8521c"/><path d="m755 895h40v40h-40z" fill="#833216"/><path d="m795 895h40v40h-40z" fill="#360006"/><path d="m835 895h40v40h-40z" fill="#56554d"/><path d="m875 895h40v40h-40z" fill="#003039"/><path d="m915 895h40v40h-40z" fill="#a8521c"/><path d="m955 895h40v40h-40z" fill="#360006"/><path d="m355 935h40v40h-40z" fill="#360006"/><path d="m395 935h40v40h-40z" fill="#833216"/><path d="m435 935h40v40h-40z" fill="#360006"/><path d="m475 935h40v40h-40z" fill="#56554d"/><path d="m515 935h40v40h-40z" fill="#003039"/><g fill="#833216"><path d="m555 935h40v40h-40z"/><path d="m595 935h40v40h-40z"/><path d="m635 935h40v40h-40z"/><path d="m675 935h40v40h-40z"/><path d="m715 935h40v40h-40z"/><path d="m755 935h40v40h-40z"/></g><path d="m795 935h40v40h-40z" fill="#360006"/><path d="m835 935h40v40h-40z" fill="#56554d"/><path d="m875 935h40v40h-40z" fill="#003039"/><path d="m915 935h40v40h-40z" fill="#833216"/><path d="m955 935h40v40h-40z" fill="#360006"/><path d="m355 975h40v40h-40z" fill="#360006"/><path d="m395 975h40v40h-40z" fill="#580f00"/><path d="m435 975h40v40h-40z" fill="#360006"/><path d="m475 975h40v40h-40z" fill="#56554d"/><path d="m515 975h40v40h-40z" fill="#003039"/><g fill="#580f00"><path d="m555 975h40v40h-40z"/><path d="m595 975h40v40h-40z"/><path d="m635 975h40v40h-40z"/><path d="m675 975h40v40h-40z"/><path d="m715 975h40v40h-40z"/><path d="m755 975h40v40h-40z"/></g><path d="m795 975h40v40h-40z" fill="#360006"/><path d="m835 975h40v40h-40z" fill="#56554d"/><path d="m875 975h40v40h-40z" fill="#003039"/><path d="m915 975h40v40h-40z" fill="#580f00"/><path d="m955 975h40v40h-40z" fill="#360006"/><path d="m355 1015h40v40h-40z" fill="#360006"/><path d="m395 1015h40v40h-40z" fill="#a8521c"/><path d="m435 1015h40v40h-40z" fill="#360006"/><path d="m475 1015h40v40h-40z" fill="#56554d"/><path d="m515 1015h40v40h-40z" fill="#003039"/><path d="m555 1015h40v40h-40z" fill="#833216"/><g fill="#a8521c"><path d="m595 1015h40v40h-40z"/><path d="m635 1015h40v40h-40z"/><path d="m675 1015h40v40h-40z"/><path d="m715 1015h40v40h-40z"/></g><path d="m755 1015h40v40h-40z" fill="#833216"/><path d="m795 1015h40v40h-40z" fill="#360006"/><path d="m835 1015h40v40h-40z" fill="#56554d"/><path d="m875 1015h40v40h-40z" fill="#003039"/><path d="m915 1015h40v40h-40z" fill="#a8521c"/><path d="m955 1015h40v40h-40z" fill="#360006"/><path d="m355 1055h40v40h-40z" fill="#360006"/><path d="m395 1055h40v40h-40z" fill="#833216"/><path d="m435 1055h40v40h-40z" fill="#360006"/><path d="m475 1055h40v40h-40z" fill="#56554d"/><path d="m515 1055h40v40h-40z" fill="#003039"/><g fill="#833216"><path d="m555 1055h40v40h-40z"/><path d="m595 1055h40v40h-40z"/><path d="m635 1055h40v40h-40z"/><path d="m675 1055h40v40h-40z"/><path d="m715 1055h40v40h-40z"/><path d="m755 1055h40v40h-40z"/></g><path d="m795 1055h40v40h-40z" fill="#360006"/><path d="m835 1055h40v40h-40z" fill="#56554d"/><path d="m875 1055h40v40h-40z" fill="#003039"/><path d="m915 1055h40v40h-40z" fill="#833216"/><g fill="#360006"><path d="m955 1055h40v40h-40z"/><path d="m395 1095h40v40h-40z"/><path d="m435 1095h40v40h-40z"/></g><path d="m475 1095h40v40h-40z" fill="#003039"/><path d="m515 1095h40v40h-40z" fill="#003039"/><g fill="#360006" transform="translate(215 215)"><path d="m340 880h40v40h-40z"/><path d="m380 880h40v40h-40z"/><path d="m420 880h40v40h-40z"/><path d="m460 880h40v40h-40z"/><path d="m500 880h40v40h-40z"/><path d="m540 880h40v40h-40z"/><path d="m580 880h40v40h-40z"/></g><path d="m835 1095h40v40h-40z" fill="#003039"/><path d="m875 1095h40v40h-40z" fill="#003039"/><path d="m915 1095h40v40h-40z" fill="#360006"/></svg>