<svg version="1.1" viewBox="0 0 16 23" xmlns="http://www.w3.org/2000/svg">

    <clipPath id="overall">
        <polygon points="3,0 3,1 2,1 2,2 1,2 1,3 0,3 0,22 1,22 1,23 15,23 15,22 16,22 16,3 15,3 15,2 14,2 14,1 13,1 13,0" />
    </clipPath>

    <g clip-path="url(#overall)" id="background">
        <rect height="23" width="16" fill="#580F00" />
        <rect x="1" y="1" width="14" height="21" fill="#A8521C" />
        <rect x="0" y="14" width="16" height="9" fill="#360006" />
        <rect x="1" y="12" width="14" height="10" fill="#833216" />
        <rect x="5" y="13" width="6" height="1" fill="#580F00" />
        <rect x="5" y="16" width="6" height="1" fill="#580F00" />
        <rect x="5" y="2" width="5" height="9" fill="#BC7139" />
        <rect x="6" y="13" width="4" height="4" fill="#56554D" />
        <rect x="2" y="0" width="3" height="23" fill="#003039" />
        <rect x="11" y="0" width="3" height="23" fill="#003039" />
        <rect x="3" y="1" width="1" height="21" fill="#56554D" />
        <rect x="12" y="1" width="1" height="21" fill="#56554D" />
        <rect x="3" y="3" width="2" height="8" fill="#56554D" />
        <rect x="12" y="2" width="2" height="9" fill="#56554D" />
        <rect x="2" y="11" width="1" height="12" fill="#360006" />
        <rect x="11" y="11" width="1" height="12" fill="#360006" />
        <rect x="0" y="2" width="2" height="4" fill="#580F00" />
        <rect x="5" y="19" width="6" height="1" fill="#580F00" />
        <rect x="6" y="20" width="4" height="1" fill="#A8521C" />
        <rect x="3" y="2" width="1" height="8" fill="#758386" />
        <rect x="12" y="2" width="1" height="8" fill="#758386" />
        <rect x="3" y="3" width="1" height="5" fill="#9AB0B3" />
        <rect x="12" y="3" width="1" height="5" fill="#9AB0B3" />
        <rect x="15" y="9" width="1" height="5" fill="#250000" />
        <rect x="6" y="2" width="3" height="9" fill="#D38B47" />
        <rect x="5" y="4" width="4" height="1" fill="#A8521C" />
        <rect x="5" y="8" width="4" height="1" fill="#A8521C" />
        <rect x="7" y="13" width="2" height="4" fill="#758386" />
    </g>

    <g id="details">
        <rect x="1" y="4" width="1" height="1" fill="#833216" />
        <rect x="1" y="9" width="1" height="1" fill="#833216" />
        <rect x="0" y="13" width="2" height="1" fill="#580F00" />
        <rect x="1" y="16" width="1" height="1" fill="#580F00" />
        <rect x="1" y="19" width="1" height="1" fill="#580F00" />
        <rect x="1" y="17" width="1" height="1" fill="#A8521C" />
        <rect x="1" y="20" width="1" height="1" fill="#A8521C" />
        <rect x="3" y="4" width="1" height="2" fill="#D0E4F6" />
        <rect x="12" y="4" width="1" height="2" fill="#D0E4F6" />
        <rect x="5" y="2" width="2" height="1" fill="#BC7139" />
        <rect x="8" y="2" width="2" height="1" fill="#BC7139" />
        <rect x="6" y="5" width="3" height="2" fill="#BC7139" />
        <rect x="7" y="6" width="1" height="2" fill="#d38b47" />
        <rect x="5" y="9" width="5" height="1" fill="#BC7139" />
        <rect x="6" y="17" width="4" height="1" fill="#A8521C" />
        <rect x="7" y="17" width="2" height="1" fill="#BC7139" />
        <rect x="2" y="12" width="3" height="2" fill="#360006" />
        <rect x="11" y="12" width="3" height="2" fill="#360006" />
        <rect x="3" y="12" width="1" height="2" fill="#003039" />
        <rect x="12" y="12" width="1" height="2" fill="#003039" />
        <rect x="7" y="14" width="2" height="1" fill="#003039" />
        <rect x="7" y="15" width="2" height="1" fill="#580F00" />
        <rect x="9" y="4" width="2" height="1" fill="#833216" />
        <rect x="9" y="8" width="2" height="1" fill="#833216" />
        <rect x="10" y="1" width="1" height="1" fill="#833216" />
        <rect x="14" y="2" width="1" height="3" fill="#580F00" />
        <rect x="14" y="4" width="1" height="1" fill="#833216" />
        <rect x="14" y="16" width="1" height="2" fill="#580F00" />
        <rect x="14" y="19" width="1" height="2" fill="#580F00" />
        <rect x="14" y="13" width="1" height="1" fill="#580F00" />
        <rect x="14" y="17" width="1" height="1" fill="#A8521C" />
        <rect x="14" y="20" width="1" height="1" fill="#A8521C" />
        <rect x="14" y="6" width="1" height="3" fill="#D38B47" />
        <rect x="14" y="7" width="1" height="1" fill="#E5AB54" />
        <rect x="14" y="10" width="1" height="1" fill="#BC7139" />
        <rect x="6" y="13" width="1" height="1" fill="#003039" />
        <rect x="6" y="13" width="1" height="1" fill="#003039" />
        <rect x="8" y="5" width="1" height="1" fill="#d38b47" />
        <rect x="9" y="6" width="1" height="1" fill="#d38b47" />
        <rect x="5" y="13" width="1" height="2" fill="#580f00" />
    </g>
</svg>
