<svg viewBox="0 0 16 23" shape-rendering="crispEdges" xmlns="http://www.w3.org/2000/svg"><g clip-path="path('M3 0v1H2v1H1v1H0v19h1v1h14v-1h1V3h-1V2h-1V1h-1V0z')"><path d="M0 0h16v23H0z" fill="#580f00"/><path d="M1 1h14v21H1z" fill="#a8521c"/><path d="M0 14h16v9H0z" fill="#360006"/><path d="M1 12h14v10H1z" fill="#833216"/><path d="M5 13h6v1H5zm0 3h6v1H5zM0 2h2v4H0zm5 17h6v1H5z" fill="#580f00"/><path d="M5 2h5v9H5z" fill="#bc7139"/><path d="M6 13h4v4H6z" fill="#56554d"/><path d="M2 0h3v23H2zm9 0h3v23h-3z" fill="#003039"/><g fill="#56554d"><path d="M3 1h1v21H3zm9 0h1v21h-1z"/><path d="M3 3h2v8H3zm9-1h2v9h-2z"/></g><path d="M2 11h1v12H2zm9 0h1v12h-1z" fill="#360006"/><path d="M3 2h1v8H3zm9 0h1v8h-1zM7 13h2v4H7z" fill="#758386"/><path d="M3 3h1v5H3zm9 0h1v5h-1z" fill="#9ab0b3"/><path d="M15 9h1v5h-1z" fill="#250000"/><path d="M6 2h3v9H6z" fill="#d38b47"/><path d="M0 13h2v1H0zm1 3h1v1H1zm0 3h1v1H1zm6-4h2v1H7zm7-13h1v3h-1zm0 14h1v2h-1zm0 3h1v2h-1zm0-6h1v1h-1zm-9 0h1v2H5z" fill="#580f00"/><path d="M3 4h1v2H3zm9 0h1v2h-1z" fill="#d0e4f6"/><path d="M2 12h3v2H2zm9 0h3v2h-3z" fill="#360006"/><g fill="#003039"><path d="M3 12h1v2H3zm9 0h1v2h-1zm-5 2h2v1H7zm-1-1h1v1H6z"/><path d="M6 13h1v1H6z"/></g><path d="M1 4h1v1H1zm0 5h1v1H1zm8-5h2v1H9zm0 4h2v1H9zm1-7h1v1h-1zm4 3h1v1h-1z" fill="#833216"/><path d="M1 17h1v1H1zm0 3h1v1H1zm5-3h4v1H6zm8 0h1v1h-1zm0 3h1v1h-1zM5 4h4v1H5zm0 4h4v1H5zm1 12h4v1H6z" fill="#a8521c"/><path d="M5 2h2v1H5zm3 0h2v1H8zM6 5h3v2H6zM5 9h5v1H5zm2 8h2v1H7zm7-7h1v1h-1z" fill="#bc7139"/><path d="M7 6h1v2H7zm7 0h1v3h-1zM8 5h1v1H8zm1 1h1v1H9z" fill="#d38b47"/><path d="M14 7h1v1h-1z" fill="#e5ab54"/></g></svg>